<?xml version="1.0" encoding="UTF-8" standalone="no"?>
<svg
   version="1.1"
   style="display: block;"
   viewBox="0 0 2048 1365"
   width="1536"
   height="1024"
   preserveAspectRatio="none"
   id="svg3075"
   sodipodi:docname="ascona2026-logo.svg"
   inkscape:version="1.2.2 (b0a8486541, 2022-12-01)"
   xmlns:inkscape="http://www.inkscape.org/namespaces/inkscape"
   xmlns:sodipodi="http://sodipodi.sourceforge.net/DTD/sodipodi-0.dtd"
   xmlns="http://www.w3.org/2000/svg"
   xmlns:svg="http://www.w3.org/2000/svg">
  <defs
     id="defs3079">
    <rect
       x="518.93233"
       y="-112.65305"
       width="488.25258"
       height="668.47052"
       id="rect3220" />
  </defs>
  <sodipodi:namedview
     id="namedview3077"
     pagecolor="#ffffff"
     bordercolor="#666666"
     borderopacity="1.0"
     inkscape:showpageshadow="2"
     inkscape:pageopacity="0.0"
     inkscape:pagecheckerboard="0"
     inkscape:deskcolor="#d1d1d1"
     showgrid="false"
     inkscape:zoom="0.31919936"
     inkscape:cx="1674.5021"
     inkscape:cy="1301.6943"
     inkscape:window-width="2509"
     inkscape:window-height="1417"
     inkscape:window-x="51"
     inkscape:window-y="23"
     inkscape:window-maximized="1"
     inkscape:current-layer="svg3075" />
  <path
     transform="translate(0,0)"
     fill="rgb(19,24,30)"
     d="M 0 0 L 2048 0 L 2048 1365 L 0 1365 L 0 0 z"
     id="path2791" />
  <path
     transform="translate(0,0)"
     fill="rgb(55,87,86)"
     d="M 546.766 491.22 C 560.439 482.006 594.377 457.121 607.015 452.17 C 610.582 450.773 614.107 450.385 617.895 451.003 C 630.662 453.084 669.79 480.913 682.894 489.222 C 687.156 488.596 691.826 487.507 695.643 490.159 C 699.507 492.845 700.527 498.603 701.054 502.948 C 710.151 508.75 757.683 543.001 763.831 543.567 C 765.375 542.528 766.871 541.539 768.228 540.254 L 770.423 551.321 C 771.802 564.103 771.157 577.382 770.942 590.233 C 783.661 598.738 796.894 606.559 809.919 614.588 C 819.184 620.3 828.475 626.727 838.249 631.507 C 838.248 623.565 835.986 591.256 840.856 585.968 C 841.788 584.955 842.185 584.597 843.599 584.613 C 850.952 584.701 922.47 632.6 933.711 639.581 C 938.983 642.855 949.102 644.021 952.91 648.614 C 955.267 651.457 956.756 655.555 956.056 659.248 C 955.254 663.481 952.109 666.564 949.161 669.454 C 949.152 685.918 949.365 702.422 948.916 718.879 C 928.159 738.772 886.59 757.668 861.907 773.835 C 855.869 777.79 852.777 785.395 846.854 789.239 C 844.592 790.707 841.532 790.508 838.899 790.447 C 832.129 790.291 778.795 826.327 770.087 832.343 C 770.152 849.071 770.133 865.8 770.029 882.527 C 776.239 885.315 781.523 888.688 784.239 895.263 C 785.79 899.019 785.442 903.311 783.843 906.989 C 781.54 912.284 777.016 916.249 771.633 918.188 C 767.068 919.833 761.597 919.885 757.17 917.774 C 753.519 916.034 751.144 912.854 749.948 909.038 C 748.247 903.607 748.397 896.591 751.125 891.575 C 752.995 888.138 756.129 885.198 759.249 882.905 L 759.286 833.696 C 743.91 824.178 728.656 814.463 713.528 804.555 C 707.551 800.698 701.258 795.582 694.927 792.542 C 692.871 791.555 690.593 791.683 688.378 791.751 C 685.756 791.832 683.096 791.056 681.184 789.211 C 678.74 786.853 677.444 783.044 676.285 779.922 C 653.591 766.999 631.108 752.919 609.335 738.492 C 602.43 742.547 561.154 770.226 557.799 771.004 C 555.335 770.045 554.153 769.457 552.861 766.929 C 552.073 765.389 551.692 763.214 551.485 761.504 L 553.386 759.855 C 554.641 757.836 555.712 755.758 556.562 753.534 C 558.524 748.397 558.899 742.11 556.372 737.099 C 553.062 730.535 547.5 727.944 540.93 725.547 L 540.818 653.557 L 540.853 629.247 L 540.809 528.446 C 545.528 525.52 549.835 522.802 552.752 517.915 C 556.382 511.834 555.516 505.703 553.671 499.307 C 551.852 496.211 549.261 493.766 546.766 491.22 z"
     id="path2793" />
  <path
     transform="translate(0,0)"
     fill="rgb(19,24,30)"
     d="M 614.368 460.028 C 636.325 472.281 658.054 485.446 678.538 500.045 C 654.412 516.544 628.175 530.643 602.402 544.393 C 602.22 559.312 602.337 574.233 602.753 589.147 C 586.155 600.256 557.823 621.632 540.853 629.247 L 540.809 528.446 C 545.528 525.52 549.835 522.802 552.752 517.915 C 556.382 511.834 555.516 505.703 553.671 499.307 C 573.292 485.647 594.164 472.865 614.368 460.028 z"
     id="path2795" />
  <path
     transform="translate(0,0)"
     fill="rgb(19,24,30)"
     d="M 540.818 653.557 C 561.454 667.323 583.739 680.446 603.397 695.474 L 603.395 728.862 C 595.217 734.196 559.575 759.377 553.386 759.855 C 554.641 757.836 555.712 755.758 556.562 753.534 C 558.524 748.397 558.899 742.11 556.372 737.099 C 553.062 730.535 547.5 727.944 540.93 725.547 L 540.818 653.557 z"
     id="path2797" />
  <path
     transform="translate(0,0)"
     fill="rgb(19,24,30)"
     d="M 850.112 598.531 C 877.576 614.961 904.614 632.197 931.884 648.957 C 930.795 652.759 929.728 656.694 930.499 660.679 C 931.473 665.712 935.638 668.213 939.64 670.703 C 939.78 685.089 939.761 699.476 939.583 713.862 C 929.792 721.831 918.512 728.184 907.617 734.486 C 890.432 746.972 868.382 758.378 849.918 769.53 C 850.003 712.537 849.473 655.519 850.112 598.531 z"
     id="path2799" />
  <path
     transform="translate(0,0)"
     fill="rgb(19,24,30)"
     d="M 607.426 598.812 C 615.563 599.808 666.881 633.661 677.076 639.974 C 654.739 653.772 633.598 670.179 612.019 685.172 C 611.198 685.962 610.59 686.014 609.514 686.308 C 587.963 671.746 564.258 658.267 544.057 641.945 L 607.426 598.812 z"
     id="path2801" />
  <path
     transform="translate(0,0)"
     fill="rgb(19,24,30)"
     d="M 763.578 738.781 C 769.029 738.179 823.599 774.308 832.018 779.763 C 810.946 795.248 787.249 808.013 765.427 822.551 C 765.291 822.588 765.159 822.643 765.02 822.662 C 759.235 823.462 707.366 787.646 698.003 781.417 L 763.578 738.781 z"
     id="path2803" />
  <path
     transform="translate(0,0)"
     fill="rgb(19,24,30)"
     d="M 763.728 598.827 C 785.781 613.335 808.992 626.12 830.765 641.049 C 811.15 657.414 787.884 671.052 766.806 685.515 C 743.846 670.628 721.203 655.258 698.894 639.413 C 721.27 627.425 742.701 613.042 763.728 598.827 z"
     id="path2805" />
  <path
     transform="translate(0,0)"
     fill="rgb(19,24,30)"
     d="M 681.748 511.915 C 684.855 515.853 682.872 615.518 682.833 629.192 C 667.893 622.253 653.64 612.636 639.489 604.201 C 631.186 598.596 622.517 593.495 613.969 588.271 L 613.782 551.659 C 636.577 538.653 659.234 525.404 681.748 511.915 z"
     id="path2807" />
  <path
     transform="translate(0,0)"
     fill="rgb(19,24,30)"
     d="M 681.188 649.896 L 682.569 650.423 C 683.227 664.222 684.899 763.469 681.033 768.762 C 671.672 767.457 650.407 752.021 641.542 746.547 C 632.664 740.638 623.455 735.162 614.39 729.541 L 614.018 696.923 L 681.188 649.896 z"
     id="path2809" />
  <path
     transform="translate(0,0)"
     fill="rgb(19,24,30)"
     d="M 837.705 651.146 C 840.081 661.203 838.381 675.435 838.375 686 C 838.429 713.826 838.302 741.651 837.994 769.475 C 824.246 761.772 810.876 753.381 797.43 745.166 L 770.942 728.611 C 771.007 717.471 770.809 706.32 770.716 695.179 C 779.899 690.29 788.468 683.834 797.11 678.019 C 810.556 668.932 824.088 659.974 837.705 651.146 z"
     id="path2811" />
  <path
     transform="translate(0,0)"
     fill="rgb(19,24,30)"
     d="M 694.99 651.456 C 701.638 654.843 708.033 659.901 714.237 664.093 C 729.23 674.222 744.074 684.811 759.515 694.242 C 760.29 705.778 759.716 717.654 759.7 729.229 L 736.377 743.409 C 722.426 751.721 709.241 761.494 695.488 770.173 C 694.233 756.046 694.956 741.363 694.956 727.158 L 694.99 651.456 z"
     id="path2813" />
  <path
     transform="translate(0,0)"
     fill="rgb(19,24,30)"
     d="M 695.161 512.614 C 703.353 516.591 711.288 522.607 718.84 527.718 C 732.462 536.936 745.96 546.331 759.939 555.005 L 760.204 587.826 L 735.99 603.223 C 722.77 612.324 708.77 620.408 695.014 628.676 L 695.161 512.614 z"
     id="path2815" />
  <path
     transform="translate(0,0)"
     fill="rgb(199,101,30)"
     d="M 771.611 95.3824 C 771.972 95.3518 772.333 95.3164 772.695 95.2907 C 791.991 93.9221 810.706 102.824 824.888 115.176 C 838.398 114.718 850.58 115.789 863.204 121.027 C 884.189 129.735 897.265 145.201 905.783 165.811 C 918.389 171.371 929.653 177.648 939.102 187.884 C 953.224 202.974 960.551 223.187 959.381 243.82 C 958.247 266.795 946.762 289.076 929.614 304.213 C 910.358 321.21 890.68 324.244 866.001 322.691 C 865.723 323.322 865.439 323.951 865.15 324.578 C 858.912 338.081 848.692 348.933 834.488 354.008 C 816.211 360.539 799.104 355.183 782.36 347.296 C 763.209 366.807 745.242 376.152 718.423 380.728 C 721.671 370.789 724.825 360.953 729.857 351.736 C 743.367 326.991 769.615 304.364 793.681 290.129 C 809.29 280.897 825.24 272.719 838.513 260.163 C 841.549 262.597 844.714 265.208 848.091 267.146 C 859.784 273.858 876.817 274.846 889.589 271.07 C 893.426 269.936 896.176 268.711 898.123 265.069 C 897.539 263.226 896.555 261.412 894.603 260.581 C 885.515 256.709 870.028 266.809 848.848 254.895 C 857.899 247.745 866.123 240.091 872.415 230.313 C 874.985 226.319 876.9 223.124 875.856 218.323 C 874.441 217.121 873.754 216.635 871.869 216.433 C 870.529 216.29 869.259 216.438 868.101 217.262 C 863.404 220.604 858.571 230.038 854.62 234.741 C 851.047 238.996 846.487 242.448 842.166 245.911 C 842.549 236.091 843.535 209.213 837.996 201.452 C 836.478 199.325 835.302 199.253 832.951 198.955 C 826.526 203.587 832.524 237.846 830.611 248.187 C 828.09 261.819 785.443 281.117 772.907 289.789 C 779.366 272.04 788.934 254.457 793.251 236.096 C 797.228 219.179 791.954 199.719 797.726 183.604 C 800.83 174.941 806.95 167.014 811.072 158.741 C 810.681 156.209 810.382 155.889 808.814 154.008 C 806.315 153.679 805.146 153.731 802.898 155.02 C 797.798 157.946 795.264 162.394 792.736 167.507 C 780.489 192.275 787.478 214.546 780.986 239.685 C 775.132 227.391 762.484 222.294 756.637 210.527 C 744.441 185.981 756.102 173.455 752.01 158.819 C 750.006 156.73 749.785 156.692 746.911 156.246 C 744.788 157.144 743.504 157.551 742.473 159.841 C 735.561 175.197 739.833 197.531 745.321 212.722 C 733.639 210.135 720.651 207.162 710.899 199.892 C 703.822 194.616 700.746 188.731 699.536 180.088 C 699.824 176.385 700.76 172.746 701.111 169.046 C 701.507 164.857 700.801 160.372 698.074 157.071 C 695.991 157.201 695.663 157.134 694.215 158.805 C 689.225 164.561 688.25 175.036 688.89 182.281 C 692.559 223.8 741.792 215.768 762.544 233.35 C 768.296 238.223 772.409 244.669 772.984 252.317 C 774.246 269.082 754.674 301.846 744.318 313.961 C 741.662 260.051 697.826 269.109 674.072 243.668 C 662.323 231.085 664.856 217.262 657.152 205.462 C 652.267 197.979 644.614 188.52 635.447 186.497 C 634.097 186.951 633.297 186.8 632.638 188.152 C 630.834 191.85 632.651 195.019 635.158 197.641 C 652.274 215.543 649.082 217.324 657.403 238.959 C 647.444 238.975 636.543 238.857 627.233 234.885 C 621.787 232.561 611.031 221.298 605.622 222.48 C 602.796 223.097 602.018 223.641 600.45 226.003 C 600.744 229.623 603.762 232.361 606.414 234.598 C 623.122 248.695 642.261 251.207 663.358 249.603 C 681.032 267.678 705.914 270.231 723.945 288.044 C 713.16 286.222 678.986 285.101 670.385 291.302 C 668.264 292.832 668.169 293.992 667.853 296.349 C 673.27 302.44 712.943 296.109 726.133 300.578 C 728.269 301.302 729.58 302.763 730.542 304.785 C 733.364 310.718 733.03 320.653 731.117 326.81 C 728.832 334.162 718.306 348.451 714.182 358.445 C 709.99 368.602 707.128 379.34 703.495 389.709 C 697.011 408.216 690.004 426.643 683.061 444.987 C 676.897 445.015 668.569 445.733 663.539 441.665 C 658.349 431.471 669.705 397.744 671.787 385.249 C 651.84 388.723 632.546 391.434 613.603 382.029 C 594.748 372.668 587.562 359.687 581.188 340.529 C 577.353 339.713 573.462 338.681 569.773 337.352 C 552.615 331.171 538.725 318.252 531.319 301.586 C 524.493 286.343 523.457 265.773 529.452 250.088 C 532.057 243.274 536.339 235.992 537.703 228.851 C 540.027 216.684 538.242 208.182 543.237 195.539 C 551.113 175.602 564.85 165.147 583.852 156.894 C 592.538 135.73 608.056 118.252 631.437 113.338 C 638.581 111.836 646.428 112.531 653.405 110.611 C 658.531 109.2 663.2 105.468 668.115 103.331 C 692.141 92.8826 715.168 94.7893 738.988 104.267 C 749.658 99.5406 759.957 96.5504 771.611 95.3824 z"
     id="path2817" />
  <path
     transform="translate(0,0)"
     fill="rgb(199,101,30)"
     d="M 561.022 824.221 C 632.274 813.933 698.323 863.499 708.358 934.787 C 718.394 1006.07 668.595 1071.95 597.273 1081.73 C 526.306 1091.47 460.832 1041.97 450.847 971.038 C 440.861 900.105 490.125 834.457 561.022 824.221 z"
     id="path2819" />
  <path
     transform="translate(0,0)"
     fill="rgb(222,155,52)"
     d="M 570.224 836.928 C 634.157 831.957 689.969 879.861 694.749 943.808 C 699.529 1007.76 651.459 1063.42 587.498 1068.01 C 523.806 1072.58 468.422 1024.76 463.662 961.082 C 458.902 897.404 506.56 841.878 570.224 836.928 z"
     id="path2821" />
  <path
     transform="translate(0,0)"
     fill="rgb(55,87,86)"
     d="M 571.652 901.497 C 599.966 897.381 626.202 917.146 630.057 945.497 C 633.912 973.848 613.906 999.901 585.521 1003.49 C 557.503 1007.04 531.861 987.35 528.056 959.366 C 524.251 931.383 543.705 905.56 571.652 901.497 z"
     id="path2823" />
  <path
     transform="translate(0,0)"
     fill="rgb(199,101,30)"
     d="M 643.133 895.567 C 649.147 892.965 656.138 895.64 658.88 901.591 C 661.622 907.542 659.112 914.594 653.226 917.475 C 649.294 919.399 644.629 919.042 641.036 916.543 C 637.442 914.044 635.484 909.794 635.92 905.439 C 636.355 901.083 639.116 897.306 643.133 895.567 z"
     id="path2825" />
  <path
     transform="translate(0,0)"
     fill="rgb(199,101,30)"
     d="M 655.535 958.687 C 661.686 956.937 668.134 960.294 670.226 966.337 C 672.319 972.38 669.329 979.006 663.413 981.435 C 659.279 983.133 654.545 982.404 651.113 979.542 C 647.681 976.68 646.113 972.154 647.04 967.782 C 647.967 963.41 651.237 959.91 655.535 958.687 z"
     id="path2827" />
  <path
     transform="translate(0,0)"
     fill="rgb(199,101,30)"
     d="M 622.964 1007.57 C 628.998 1006.83 634.533 1011 635.487 1017 C 636.442 1023.01 632.474 1028.69 626.509 1029.86 C 622.454 1030.66 618.288 1029.17 615.647 1026 C 613.006 1022.82 612.312 1018.45 613.837 1014.61 C 615.362 1010.77 618.863 1008.07 622.964 1007.57 z"
     id="path2829" />
  <path
     transform="translate(0,0)"
     fill="rgb(199,101,30)"
     d="M 493.444 934.502 C 499.149 932.589 505.346 935.519 507.489 941.141 C 509.632 946.763 506.957 953.074 501.427 955.444 C 497.644 957.065 493.277 956.484 490.05 953.93 C 486.823 951.376 485.254 947.259 485.962 943.205 C 486.67 939.151 489.542 935.81 493.444 934.502 z"
     id="path2831" />
  <path
     transform="translate(0,0)"
     fill="rgb(199,101,30)"
     d="M 522.859 883.647 C 526.582 882.061 530.874 882.634 534.051 885.14 C 537.227 887.647 538.782 891.688 538.106 895.677 C 537.429 899.667 534.628 902.969 530.803 904.288 C 525.169 906.23 519.01 903.362 516.87 897.801 C 514.729 892.24 517.377 885.983 522.859 883.647 z"
     id="path2833" />
  <path
     transform="translate(0,0)"
     fill="rgb(199,101,30)"
     d="M 593.174 865.516 C 596.929 864.006 601.209 864.678 604.321 867.267 C 607.432 869.855 608.873 873.941 608.072 877.909 C 607.271 881.876 604.358 885.084 600.486 886.262 C 594.848 887.978 588.858 884.949 586.898 879.39 C 584.939 873.831 587.705 867.716 593.174 865.516 z"
     id="path2835" />
  <path
     transform="translate(0,0)"
     fill="rgb(199,101,30)"
     d="M 516.172 1000.53 C 519.128 999.488 522.415 1000.19 524.689 1002.35 C 526.963 1004.5 527.841 1007.74 526.963 1010.75 C 526.086 1013.76 523.601 1016.02 520.526 1016.62 C 516.227 1017.45 512.016 1014.82 510.872 1010.59 C 509.729 1006.37 512.041 1001.98 516.172 1000.53 z"
     id="path2837" />
  <path
     transform="translate(0,0)"
     fill="rgb(199,101,30)"
     d="M 574.469 1025.48 C 578.715 1024.86 582.699 1027.69 583.512 1031.9 C 584.326 1036.11 581.682 1040.22 577.51 1041.23 C 574.636 1041.92 571.615 1040.98 569.645 1038.77 C 567.675 1036.57 567.075 1033.46 568.083 1030.68 C 569.091 1027.9 571.544 1025.91 574.469 1025.48 z"
     id="path2839" />
  <path
     transform="translate(0,0)"
     fill="rgb(55,87,86)"
     d="M 886.636 914.488 C 876.187 884.783 875.722 854.758 887.218 825.36 C 891.771 813.717 906.408 783.722 918.198 779.229 C 920.48 778.36 922.9 778.457 925.026 779.702 C 927.651 781.241 930.121 784.546 930.769 787.52 C 932.321 794.644 918.711 809.677 914.405 815.943 C 938.385 832.924 964.306 847.736 989.016 863.709 C 992.245 858.151 994.21 852.068 996.921 846.265 C 998.707 842.444 1000.81 838.908 1005.04 837.512 C 1007.6 836.667 1010.01 836.647 1012.39 838.016 C 1014.6 839.294 1016.02 841.282 1016.49 843.798 C 1018.53 854.634 1004.77 877.25 998.734 886.077 C 979.051 914.864 944.661 925.205 912.15 931.093 C 921.653 968.239 924.134 1002.66 906.926 1038.2 C 900.894 1050.66 878.943 1081.58 865.53 1085.59 C 862.977 1086.35 860.28 1086.24 857.988 1084.8 C 855.66 1083.33 854.218 1081.05 853.696 1078.38 C 852.176 1070.63 870.25 1055.96 875.268 1050.01 C 879.044 1045.53 882.253 1040.6 885.439 1035.69 C 859.084 1017.81 831.911 1001.01 805.193 983.676 C 799.359 993.233 794.286 1003.08 790.334 1013.57 C 787.257 1021.73 785.146 1030.37 780.973 1038.07 C 752.562 1057.42 722.657 1075.3 693.615 1093.76 C 694.366 1100.18 695.467 1106.43 693.135 1112.65 C 690.569 1119.5 685.088 1122.57 678.832 1125.36 L 678.714 1205.14 C 683.821 1207.74 688.966 1210.5 691.935 1215.64 C 694.29 1219.78 694.906 1224.69 693.65 1229.28 C 692.135 1234.9 688.059 1240.57 682.885 1243.28 C 678.318 1245.67 673.072 1245.82 668.218 1244.21 C 662.646 1242.37 657.753 1238.24 655.241 1232.91 C 653.011 1228.17 652.737 1222.76 654.732 1217.9 C 657.555 1211.02 662.743 1208.17 669.094 1205.27 L 669.124 1124.89 C 665.123 1123.12 661.571 1120.52 657.954 1118.09 C 636.38 1133.17 605.587 1153.43 582.411 1165.32 C 560.514 1154.13 539.483 1139.99 518.427 1127.26 C 513.615 1130.06 509.38 1132.31 503.647 1132.05 C 498.411 1131.81 493.509 1130.1 490.069 1125.97 C 485.279 1120.23 485.221 1113.87 486.089 1106.86 C 453.926 1086.51 420.566 1068.23 388.7 1047.29 C 386.967 1048.52 385.209 1049.74 383.291 1050.67 C 377.875 1053.29 371.675 1053.78 365.965 1051.73 C 360.801 1049.87 356.57 1046.06 354.179 1041.12 C 351.746 1036.18 351.402 1030.46 353.222 1025.26 C 355.849 1017.78 361.122 1014.47 367.874 1011.27 L 367.907 900.021 C 363.315 897.937 359.129 895.688 355.925 891.673 C 351.231 885.791 351.078 879.089 351.907 871.98 C 321.035 853.536 289.806 835.464 259.437 816.209 C 255.133 819.911 250.787 823.351 245.087 824.514 C 239.78 825.597 234.225 824.679 229.695 821.64 C 224.818 818.317 221.518 813.14 220.564 807.317 C 219.623 801.844 220.853 796.007 224.199 791.537 C 227.684 786.884 233.441 783.293 239.243 782.7 C 245.407 782.069 250.89 784.135 255.52 788.146 C 261.71 793.508 262.755 799.187 263.231 806.918 L 357.414 863.413 C 360.817 860.818 364.367 858.835 368.563 857.906 C 375.744 856.317 381.522 857.949 387.603 861.722 L 393.483 870.53 C 394.343 875.268 395.033 879.905 393.667 884.639 C 391.459 892.298 385.501 895.804 378.992 899.38 C 379.143 936.757 378.995 974.134 378.546 1011.51 C 383.292 1013.47 387.967 1015.89 391.057 1020.17 C 395.204 1025.9 394.818 1031.99 393.991 1038.58 C 426.072 1059.22 458.66 1079.06 491.724 1098.09 C 495.759 1095.24 499.754 1093.53 504.721 1093.4 C 509.386 1093.28 513.627 1094.8 516.942 1098.12 C 522.717 1103.89 522.994 1110.39 522.82 1118.1 C 542.544 1130.01 562.014 1143.14 582.297 1154 C 606.502 1140.83 629.34 1124.31 652.864 1109.88 C 652.626 1105.4 652.252 1101.08 653.824 1096.79 C 655.832 1091.31 659.664 1086.1 665.147 1083.77 C 672.629 1080.59 679.897 1082.8 686.924 1085.87 L 768.944 1032.8 C 768.797 1032.05 768.648 1031.3 768.542 1030.55 C 765.764 1010.67 782.518 980.966 794.191 965.293 C 817.132 934.492 849.415 919.863 886.636 914.488 z"
     id="path2841" />
  <path
     transform="translate(0,0)"
     fill="rgb(19,24,30)"
     d="M 832.039 956.703 C 839.604 959.583 847.417 966.181 854.233 970.673 L 898.596 999.765 C 896.321 1007.1 896.365 1016.56 891.048 1022.38 C 887.933 1022.96 886.72 1021.47 884.17 1019.86 L 812.691 973.848 C 818.658 967.477 825.089 961.956 832.039 956.703 z"
     id="path2843" />
  <path
     transform="translate(0,0)"
     fill="rgb(19,24,30)"
     d="M 908.663 826.805 C 933.497 842.238 959.367 858.121 982.803 875.563 C 978.385 880.133 974.006 884.275 969.011 888.225 L 965.719 890.441 C 959.214 890.989 909.494 856.821 899.819 850.532 C 901.989 842.435 905.064 834.367 908.663 826.805 z"
     id="path2845" />
  <path
     transform="translate(0,0)"
     fill="rgb(19,24,30)"
     d="M 889.639 934.322 L 891.757 934.389 C 900.006 944.923 900.488 973.214 900.85 986.406 C 892.326 981.187 883.913 975.79 875.615 970.217 C 865.01 962.868 853.945 956.305 843.496 948.684 C 858.714 941.015 872.855 937.073 889.639 934.322 z"
     id="path2847" />
  <path
     transform="translate(0,0)"
     fill="rgb(19,24,30)"
     d="M 896.94 865.204 C 908.162 868.804 939.046 890.601 950.007 898.337 L 940.251 902.494 C 928.921 906.474 917.302 908.919 905.566 911.356 C 900.65 896.048 898.219 881.179 896.94 865.204 z"
     id="path2849" />
  <path
     fill="#c7651e"
     d="m 401.70858,484.63049 c 2.079,0.202 4.129,0.804 6.068,1.564 9.495,3.72 37.793,18.282 41.668,27.045 -0.078,1.972 0.128,3.08 -1.152,4.746 -2.981,3.883 -6.131,3.106 -10.39,3.496 -5.858,6.499 -10.121,16.716 -14.908,24.26 1.784,1.962 4.273,4.362 4.611,7.061 0.645,5.138 -4.207,9.762 -7.196,13.578 10.225,6.149 19.727,14.529 27.132,23.839 15.606,19.622 21.481,44.254 18.444,68.958 -3.242,24.744 -16.172,47.19 -35.949,62.41 2.866,5.315 4.259,9.595 5.096,15.57 l 6.141,-0.399 c 7.081,-0.442 13.375,0.419 18.764,5.483 4.424,4.156 6.589,10.317 6.563,16.314 -0.016,3.696 -0.737,8.635 -3.619,11.188 -4.016,3.557 -145.154,1.658 -162.585,1.373 -0.349,-9.484 -1.706,-20.1 5.652,-27.528 10.588,-10.687 34.32,-3.648 48.061,-4.314 2.898,-0.141 5.549,0.095 7.557,-2.093 -0.081,-13.908 -0.04,-27.817 0.124,-41.724 -9.295,0.009 -64.558,1.619 -68.238,-1.046 -2.502,-1.814 -3.53,-4.832 -3.79,-7.801 -0.318,-3.632 0.404,-6.084 2.766,-8.812 7.008,-3.221 95.876,-2.575 108.034,-0.494 4.593,4.841 3.005,14.532 2.857,20.799 8.216,-4.507 15.255,-10.369 20.849,-17.939 9.189,-12.508 12.994,-28.171 10.569,-43.501 -3.08,-19.252 -15.716,-30.938 -30.815,-41.693 -5.746,9.306 -10.822,23.143 -18.774,30.455 -2.457,2.26 -5.045,3.289 -8.399,2.953 -5.249,-0.527 -38.552,-19.845 -42.272,-24.531 -0.947,-5.859 38.149,-71.171 43.781,-79.08 3.067,-1.6 4.577,-1.259 7.943,-1.057 5.843,-4.664 10.551,-15.383 14.473,-21.942 -1.436,-1.937 -3.795,-4.594 -4.156,-7.02 -0.595,-4.009 2.757,-7.273 5.09,-10.118 z"
     id="path2851" />
  <path
     transform="translate(0,0)"
     fill="rgb(19,24,30)"
     d="M 408.454 717.866 C 413.758 715.793 419.746 718.339 421.932 723.597 C 424.119 728.855 421.703 734.897 416.494 737.197 C 413.022 738.73 408.993 738.264 405.962 735.98 C 402.932 733.696 401.374 729.951 401.891 726.192 C 402.408 722.432 404.919 719.247 408.454 717.866 z"
     id="path2853" />
  <path
     fill="#de9b34"
     d="m 379.875,351.636 c -5.102,-2.984 -9.998,-5.485 -13.245,-10.66 -3.223,-5.137 -3.28,-12.218 -2.077,-18.023 1.047,-5.052 3.683,-9.474 8.192,-12.143 4.949,-2.928 11.399,-3.49 16.921,-2.073 5.941,1.571 11.021,5.424 14.136,10.72 2.75,4.753 3.749,10.363 2.11,15.684 -2.534,8.227 -9.169,12.583 -16.444,16.175 l 0.148,49.129 c 2.642,1.104 5.166,2.288 7.515,3.942 6.679,4.703 7.727,11.228 8.989,18.706 39.203,22.376 78.097,45.288 116.672,68.73 8.941,-3.78 14.748,-3.684 23.974,-0.603 2.495,2.546 5.086,4.991 6.905,8.087 1.845,6.396 2.711,12.527 -0.919,18.608 -2.917,4.887 -7.224,7.605 -11.943,10.531 l 0.044,100.801 -0.035,24.31 0.112,71.99 c 6.57,2.397 12.132,4.988 15.442,11.552 2.527,5.011 2.152,11.298 0.19,16.435 -0.85,2.224 -1.921,4.302 -3.176,6.321 l -1.901,1.649 -0.981,0.625 c -6.92661,4.05211 -11.89813,3.34736 -21.39302,2.87027 -9.99611,9.33044 -32.57575,31.25202 -46.74298,42.58973 -11.85877,9.49029 -20.5334,17.16356 -31.352,25.021 -18.58396,13.49734 -38.588,24.931 -57.533,37.92 l -5.88,-8.808 c 17.278,-10.104 34.08063,-21.55554 50.468,-33.283 13.06367,-9.34888 24.65644,-18.03565 38.093,-29.52 13.21344,-11.29365 32.795,-27.546 45.321,-40.137 -2.719,-5.473 -4.72,-12.087 -3.116,-18.189 1.827,-6.952 6.707,-10.454 12.475,-13.938 -1.014,-65.906 -0.123,-131.964 -0.14,-197.885 -4.944,-2.648 -9.849,-5.099 -12.933,-10.021 -3.996,-6.376 -2.753,-13.002 -1.007,-19.771 -37.832,-22.725 -76.503,-44.151 -114.187,-67.082 -4.573,4.333 -9.572,8.034 -16.107,8.438 -7.645,0.474 -12.796,-3.453 -18.187,-8.169 -35.576,20.151 -71.279,40.806 -105.9,62.542 0.568,4.519 0.893,8.876 -0.728,13.259 -2.563,6.925 -8.414,10.306 -14.806,13.084 l -0.216,137.82 c 4.812,2.238 8.68,4.27 12.132,8.376 3.447,4.1 5.522,8.878 4.803,14.338 -0.719,5.456 -3.939,10.414 -8.284,13.71 -4.757,3.603 -10.768,5.131 -16.668,4.237 -5.036,-0.731 -9.633,-2.985 -12.607,-7.242 -3.276,-4.691 -4.641,-11.984 -3.466,-17.577 1.616,-7.698 7.659,-11.678 13.842,-15.565 -0.94,-45.957 0.073,-92.165 0.073,-138.153 -2.421,-0.912 -4.971,-1.979 -7.125,-3.431 -4.839,-3.261 -8.224,-8.836 -9.13,-14.545 -0.84,-5.293 0.648,-10.9 3.841,-15.183 3.494,-4.669 8.767,-7.679 14.564,-8.314 7.803,-0.924 13.477,1.649 19.493,6.414 35.329,-21.388 70.871,-42.425 106.618,-63.107 0.453,-2.845 1.016,-5.716 1.859,-8.474 2.158,-7.069 7.299,-10.144 13.416,-13.345 z"
     id="path2855"
     sodipodi:nodetypes="ccsccccccscccccccccscccccsaccascccccccccccccsccccccccsccccccc" />
  <path
     transform="translate(0,0)"
     fill="rgb(222,155,52)"
     d="M 866.366 450.306 C 873.958 441.044 912.155 397.25 914.437 389.893 C 914.659 389.176 914.541 387.426 914.462 386.67 C 913.919 381.498 911.678 377.149 915.296 372.39 C 917.558 369.414 921.189 367.206 924.911 366.747 C 928.972 366.247 933.033 367.764 936.089 370.417 C 939.096 373.026 941.16 376.811 941.414 380.811 C 941.648 384.484 940.303 387.918 937.768 390.573 C 933.94 394.583 929.156 395.297 923.96 395.978 C 908.915 414.003 893.632 432.422 879.626 451.259 C 896.018 450.409 912.679 449.62 928.989 447.786 C 932.453 442.484 936.513 437.665 943.054 436.172 C 945.5 435.614 947.835 436.112 949.874 437.554 C 953.672 440.241 955.915 444.884 956.433 449.43 C 956.997 454.371 955.543 459.752 952.176 463.475 C 950.452 465.38 948.132 466.552 945.532 466.523 C 939.247 466.454 934.03 462.746 929.778 458.514 C 908.616 461.407 886.84 461.98 865.51 463.223 L 826 500.436 C 842.613 503.459 859.644 506.232 875.87 510.92 L 876.665 509.998 C 880.239 505.896 884.556 502.215 890.321 502.043 C 893.626 501.944 896.495 503.233 898.763 505.61 C 901.889 508.884 903.199 513.569 902.825 518.027 C 902.498 521.923 900.762 525.966 897.749 528.536 C 894.364 531.423 889.432 532.517 885.069 531.977 C 881.96 531.592 880.119 530.34 878.308 527.827 C 877.812 527.139 877.355 526.425 876.882 525.722 C 876.157 524.644 875.098 522.502 874.181 521.769 C 868.782 517.45 827.186 510.712 817.284 508.324 C 801.433 522.077 785.373 536.597 770.423 551.321 L 768.228 540.254 C 773.894 535.173 779.813 530.218 784.98 524.624 C 785.082 500.346 785.617 475.976 785.177 451.707 C 781.089 449.136 777.166 446.174 776.2 441.066 C 775.491 437.318 777.094 433.079 779.286 430.081 C 781.549 426.986 784.776 424.964 788.601 424.491 C 792.852 423.965 797.318 425.433 800.516 428.264 C 803.445 430.857 805.141 434.409 805.201 438.33 C 805.272 442.924 803.095 446.901 799.801 449.971 C 798.429 451.249 796.936 452.392 795.43 453.504 C 795.072 474.544 794.854 495.587 794.775 516.63 C 814.663 497.573 834.774 478.751 855.103 460.167 L 855.124 416.943 C 851.233 414.262 847.466 411.391 846.372 406.476 C 845.557 402.816 846.786 398.616 848.806 395.542 C 850.894 392.315 854.288 390.161 858.097 389.646 C 862.167 389.134 866.275 390.234 869.545 392.71 C 872.569 395.029 874.468 398.376 874.704 402.199 C 874.97 406.513 873.025 410.419 870.099 413.458 C 869.021 414.565 867.91 415.638 866.767 416.677 L 866.366 450.306 z"
     id="path2857" />
  <path
     fill="#c7651e"
     d="m 323.89189,610.583 c 0.659,0.014 1.318,0.04 1.975,0.092 6.931,0.551 48.235,21.554 52.008,26.887 1.733,2.449 1.847,3.419 1.317,6.284 -1.582,1.399 -2.98,2.226 -5.041,2.79 -4.778,1.31 -7.148,-0.584 -11.22,-2.87 -1.426,3.829 -3.552,10.338 -7.472,12.121 -3.818,1.737 -10.252,-0.86 -13.95,-2.34 -5.682,-2.275 -12.524,-6.217 -14.695,-12.298 -1.634,-4.575 1.13,-9.351 3.012,-13.413 -4.042,-2.471 -8.082,-4.379 -9.381,-9.277 0.252,-3.371 1.608,-5.29 3.447,-7.976 z"
     id="path3021" />
  <text
     xml:space="preserve"
     style="font-size:127.984px;line-height:1.25;font-family:'IBM Plex Sans';-inkscape-font-specification:'IBM Plex Sans';letter-spacing:0px;word-spacing:0px;fill:#de9b34;fill-opacity:1;stroke-width:1.33317"
     x="1070.8118"
     y="238.76843"
     id="text3200"
     transform="scale(1.0001221,0.99987792)"><tspan
       sodipodi:role="line"
       id="tspan3198"
       style="font-style:normal;font-variant:normal;font-weight:normal;font-stretch:normal;font-size:127.984px;font-family:Arial;-inkscape-font-specification:Arial;fill:#de9b34;fill-opacity:1;stroke-width:1.33317"
       x="1070.8118"
       y="238.76843">Statistical and</tspan><tspan
       sodipodi:role="line"
       style="font-style:normal;font-variant:normal;font-weight:normal;font-stretch:normal;font-size:127.984px;font-family:Arial;-inkscape-font-specification:Arial;fill:#de9b34;fill-opacity:1;stroke-width:1.33317"
       x="1070.8118"
       y="399.29178"
       id="tspan3204">AI methods for</tspan><tspan
       sodipodi:role="line"
       style="font-style:normal;font-variant:normal;font-weight:normal;font-stretch:normal;font-size:127.984px;font-family:Arial;-inkscape-font-specification:Arial;fill:#de9b34;fill-opacity:1;stroke-width:1.33317"
       x="1070.8118"
       y="559.81519"
       id="tspan3208">multi-modal</tspan><tspan
       sodipodi:role="line"
       style="font-style:normal;font-variant:normal;font-weight:normal;font-stretch:normal;font-size:127.984px;font-family:Arial;-inkscape-font-specification:Arial;fill:#de9b34;fill-opacity:1;stroke-width:1.33317"
       x="1070.8118"
       y="720.33856"
       id="tspan3210">multi-scale</tspan><tspan
       sodipodi:role="line"
       style="font-style:normal;font-variant:normal;font-weight:normal;font-stretch:normal;font-size:127.984px;font-family:Arial;-inkscape-font-specification:Arial;fill:#de9b34;fill-opacity:1;stroke-width:1.33317"
       x="1070.8118"
       y="880.86194"
       id="tspan3212">modeling</tspan><tspan
       sodipodi:role="line"
       style="font-style:normal;font-variant:normal;font-weight:normal;font-stretch:normal;font-size:127.984px;font-family:Arial;-inkscape-font-specification:Arial;fill:#de9b34;fill-opacity:1;stroke-width:1.33317"
       x="1070.8118"
       y="1041.3853"
       id="tspan3214">of biological</tspan><tspan
       sodipodi:role="line"
       style="font-style:normal;font-variant:normal;font-weight:normal;font-stretch:normal;font-size:127.984px;font-family:Arial;-inkscape-font-specification:Arial;fill:#de9b34;fill-opacity:1;stroke-width:1.33317"
       x="1070.8118"
       y="1201.9086"
       id="tspan3216">system</tspan></text>
  <text
     xml:space="preserve"
     transform="scale(1.3333333,1.3330078)"
     id="text3218"
     style="font-size:60px;line-height:1.25;font-family:'IBM Plex Sans';-inkscape-font-specification:'IBM Plex Sans';letter-spacing:0px;word-spacing:0px;white-space:pre;shape-inside:url(#rect3220);display:inline" />
</svg>
