<?xml version="1.0" encoding="UTF-8" standalone="no"?>
<svg
   version="1.1"
   style="display:block"
   viewBox="0 0 2047.9999 2048"
   width="1023.9999"
   height="1024"
   preserveAspectRatio="none"
   id="svg299"
   sodipodi:docname="AIVector_logo1.svg"
   inkscape:version="1.2.2 (b0a8486541, 2022-12-01)"
   xmlns:inkscape="http://www.inkscape.org/namespaces/inkscape"
   xmlns:sodipodi="http://sodipodi.sourceforge.net/DTD/sodipodi-0.dtd"
   xmlns="http://www.w3.org/2000/svg"
   xmlns:svg="http://www.w3.org/2000/svg">
  <sodipodi:namedview
     id="namedview301"
     pagecolor="#ffffff"
     bordercolor="#666666"
     borderopacity="1.0"
     inkscape:showpageshadow="2"
     inkscape:pageopacity="0.0"
     inkscape:pagecheckerboard="0"
     inkscape:deskcolor="#d1d1d1"
     showgrid="false"
     inkscape:zoom="0.78602802"
     inkscape:cx="977.70052"
     inkscape:cy="361.94639"
     inkscape:window-width="2509"
     inkscape:window-height="1417"
     inkscape:window-x="51"
     inkscape:window-y="23"
     inkscape:window-maximized="1"
     inkscape:current-layer="svg299" />
  <defs
     id="defs7">
    <rect
       x="-250.43555"
       y="818.56775"
       width="311.87561"
       height="371.1084"
       id="rect702" />
    <linearGradient
       id="Gradient1"
       gradientUnits="userSpaceOnUse"
       x1="279.17401"
       y1="1040.42"
       x2="159.895"
       y2="951.48199"
       gradientTransform="translate(25.703783,-5.31007)">
      <stop
         class="stop0"
         offset="0"
         stop-opacity="1"
         stop-color="rgb(68,172,163)"
         id="stop2" />
      <stop
         class="stop1"
         offset="1"
         stop-opacity="1"
         stop-color="rgb(67,177,193)"
         id="stop4" />
    </linearGradient>
  </defs>
  <path
     fill="#fffffe"
     d="M 0,0 H 2047.9999 V 2048.0001 H 0 Z"
     id="path9" />
  <path
     fill="#40adaf"
     d="m 449.59978,190.17193 c -2.297,-12.556 -2.716,-23.295 4.682,-34.488 5.933,-8.934 15.287,-15.028 25.857,-16.843 10.522,-1.869 21.355,0.531 30.104,6.669 8.884,6.238 14.403,15.56 15.834,26.291 0.903,6.769 -0.091,13.639 -1.291,20.306 64.175,36.67 128.035,73.89 191.572,111.655 9.249,-7.291 19.067,-12.387 31.274,-10.687 7.665,1.067 13.491,4.633 19.557,9.218 33.302,-20.134 66.539,-40.595 100.339,-59.877 -2.141,-9.084 -2.196,-16.886 2.811,-25.222 3.839,-6.392 9.798,-9.621 16.907,-11.205 7.056,-1.573 14.769,-1.362 21.028,2.631 6.462,4.123 10.08,11.185 11.378,18.58 1.454,8.28 -0.31,16.972 -5.423,23.717 -4.16,5.489 -10.387,9.356 -17.283,10.105 -8.008,0.871 -15.981,-2.43 -21.961,-7.623 -0.813,-0.705 -1.582,-1.46 -2.358,-2.205 -32.894,21.079 -66.996,40.16 -100.112,60.845 1.975,10.433 1.976,20.311 -4.513,29.349 -5.411,7.536 -13.24,11.257 -21.756,14.174 1.391,79.352 0.52,158.887 0.514,238.257 10.724,5.26 21.754,11.161 25.733,23.325 2.441,7.463 1.374,14.281 -0.291,21.717 67.528,38.31 134.603,77.414 201.21,117.304 7.789,-6.828 16.076,-12.218 26.93402,-11.342 8.938,0.721 15.905,5.361 22.994,10.357 67.014,-39.842 133.294,-81.006 200.534,-120.455 -2.57,-9.869 -2.67,-20.142 2.78,-29.135 4.78,-7.868 12.47,-12.122 21.11,-14.562 0.01,-31.777 -0.59,-63.68 0.18,-95.44 -8.17,-4.502 -14.29,-9.698 -17.15,-18.896 -0.57,-1.844 -0.97,-3.749 -1.36,-5.639 1.86,-8.117 4.28,-15.107 11.67,-19.851 4.29,-2.755 8.99,-3.857 13.92,-4.839 8.68,2.423 15.68,5.719 20.16,14.043 3.18,5.862 3.79,12.775 1.69,19.102 -2.26,6.62 -7.48,11.878 -13.76,14.804 -2.16,1.006 -4.41,1.847 -6.63,2.686 l 0.23,94.094 c 9.59,3.4 17.24,7.913 21.87,17.496 3.99,8.267 4.26,18.256 0.97,26.796 -3.01,7.824 -9.03,14.502 -16.9,17.615 -7.28,2.884 -15.29,2.344 -22.34,-0.944 -4.51,-2.104 -8.18,-5.279 -11.64,-8.795 -41.52,25.679 -83.22,51.051 -125.1,76.114 -24.83,14.946 -49.49,30.429 -74.73,44.651 1.33,11.635 2.02,23.273 -5.934,32.92 -5.13,6.222 -11.9,9.227 -19.219,12.019 l 0.245,234.46597 c 10.227,3.65 18.85,8.68 23.738,18.91 3.68,7.82 4.14,16.78 1.27,24.94 -3.254,9.16 -10.382,15.98 -19.173,19.83 -2.301,1 -4.669,1.84 -7.046,2.64 l 0.877,127.27 c 9.245,3.5 16.769,8.72 20.794,18.11 3.238,7.68 3.258,16.34 0.048,24.03 -0.936,2.14 -1.93,4.24 -2.982,6.32 29.932,24.44 63.702,45.09 92.582,70.68 -2.12,1.76 -3.97,3.82 -5.49,6.12 -6.06,9.13 -6.32,20.93 -0.67,30.31 1.81,3 4.16,5.63 6.92,7.78 -2.95,0.91 -93.036,78.54 -104.509,88.13 0.849,2.04 1.701,4.1 2.385,6.2 2.365,7.28 2.026,15.92 -1.58,22.73 -3.395,6.42 -9.571,10.86 -16.43902,12.94 -8.13,2.41 -16.9,1.28 -24.153,-3.12 -6.522,-3.87 -11.616,-9.95 -13.257,-17.46 -1.993,-9.13 1.344,-16.78 6.162,-24.32 -12.654,-13.17 -24.038,-27.87 -35.724,-41.92 -16.6,-19.71 -32.969,-39.61 -49.105,-59.7 2.877,-1.34 5.544,-3.09 7.916,-5.19 10.88,-9.66 14.056,-25.35 7.788,-38.47 -1.202,-2.52 -2.723,-4.87 -4.524,-7.01 26.662,-18.97 53.825,-37.28 80.312,-56.49 -2.161,-8.57 -2.781,-17.11 1.826,-25.06 4.536,-7.83 12.046,-11.83 20.143,-15.09 0.039,-42.39 -0.626,-84.9 0.358,-127.27 -8.889,-2.74 -15.382,-5.92 -21.785,-12.92 l -197.035,118.11 c 2.185,11.31 3.021,21.46 -4.04,31.46 -5.553,7.86 -13.708,11.88 -22.746,14.35 l -0.216,231 c 33.097,18.23 65.203,38.9 97.55,58.46 l 122.837,73.47 c 7.688,-6.85 16.54,-10.65 26.996,-10.26 9.05302,0.34 16.46102,3.84 23.81102,8.86 l 102.969,-62.36 c 19.61,-11.92 38.94,-24.52 59,-35.68 -0.34,-8.47 -0.61,-16.54 5.43,-23.31 3.98,-4.46 9.94,-8.07 16.02,-8.16 7.14,-0.14 14.03,2.62 19.09,7.66 4.44,4.33 6.92,10.28 6.87,16.49 -0.07,6.86 -3.16,13.54 -8.1,18.26 -4.61,4.46 -10.83,6.87 -17.24,6.68 -7.01,-0.22 -12.3,-3.05 -17.3,-7.79 l -104.85,63.52 c -18.52,11.15 -37.47,21.88 -55.649,33.55 3.349,11.11 4.119,22.09 -1.687,32.66 -4.555,8.3 -12.53,14.09 -21.681,16.33 -9.18502,2.18 -18.86302,0.58 -26.84902,-4.46 -7.416,-4.62 -12.764,-11.87 -14.671,-20.42 -1.709,-7.67 -0.412,-15.25 2.403,-22.46 -21.385,-11.64 -41.9,-24.85 -62.807,-37.32 -30.108,-17.63 -60.113,-35.43 -90.013,-53.4 -21.399,-13.04 -42.837,-28 -65.066,-39.37 -28.654,14.43 -58.544,34.75 -85.95,51.9 -38.158,23.75 -76.618,47.02 -115.368,69.79 3.067,10.14 3.974,20.58 -1.439,30.21 -5.012,8.92 -13.629,13.35 -23.152,15.96 l 0.12,130.97 c 9.285,2.67 17.347,7.04 22.125,15.84 4.181,7.71 4.01,16.64 1.17,24.77 -2.493,7.14 -7.17,13.18 -14.199,16.27 -7.825,3.43 -16.733,3.38 -24.524,-0.12 -7.886,-3.53 -14.339,-10.54 -17.044,-18.76 -2.449,-7.24 -1.699,-15.19 2.063,-21.84 4.62,-8.02 11.995,-12.66 20.346,-16.06 l 0.091,-131.44 c -9.403,-1.98 -17.248,-5.29 -22.866,-13.61 -5.81,-8.5999 -6.362,-19.07 -4.197,-28.96 0.16,-0.73 0.331,-1.45 0.515,-2.16 -61.495,-34.8 -121.388,-73.04 -182.125,-109.22 -8.941,7.12 -17.971,12.21 -29.898,10.92 -8.947,-0.96 -16.958,-5.81 -22.404,-12.91 -5.803,-7.5 -8.282,-17.05 -6.859,-26.42 1.358,-8.79 6.112,-16.29 13.378,-21.39 4.725,-3.31 9.726,-4.64 15.217,-6.03 l -0.062,-224.56 c -9.763,-3.29 -18.692,-8.2 -23.25,-17.97 -4.007,-8.58 -3.045,-17.47 -0.76,-26.35 -42.622,-28.04 -86.023,-54.89 -128.5519,-83.07 -6.4706,5.87 -13.2099,10.46 -22.403397,9.85 -6.7005,-0.45 -12.6132,-4.13 -16.7171,-9.33 -4.9693,-6.27 -7.1605,-14.3 -6.0658,-22.23 0.8762,-6.58 4.0648,-13.26 9.5203,-17.24 6.1692,-4.5 13.9671,-4.99 21.247397,-3.51 6.3891,1.31 11.3679,4.52 14.9019,10.05 4.6168,7.22 6.0272,15.53 4.422,23.87 42.3606,28.8 87.2086,53.92 129.6476,82.55 7.857,-6.68 15.97,-11.71 26.76,-11.12 10.087,0.56 17.469,5.71 25.172,11.62 38.524,-24.15 78.016,-46.93 116.742,-70.81 12.578,-7.75 25.633,-15.1 37.847,-23.4 -1.971,-10.67 -2.236,-20.98 4.267,-30.31 5.434,-7.8 12.98,-11.25 21.521,-14.48 l -0.073,-235.07797 c -9.146,-2.202 -17.401,-6.11 -22.614,-14.314 -5.161,-8.121 -5.351,-17.77 -3.052,-26.857 0.221,-0.862 0.453,-1.721 0.698,-2.576 -65.336,-40 -132.294,-77.611 -198.312,-116.492 -8.133,8.439 -16.727,15.576 -29.107,15.626 -8.522,0.034 -15.272,-3.293 -22.434,-7.421 -38.702,25.038 -77.54,49.866 -116.511997,74.483 1.9908,7.753 2.8074,15.946 -1.5653,23.161 -2.9001,4.785 -7.6444,7.66 -13.0204,8.919 -6.8666,1.617 -14.0968,0.237 -19.8859,-3.794 -5.4905,-3.778 -9.6407,-9.637 -10.5982,-16.309 -0.9007,-6.276 1.4982,-12.278 5.3904,-17.125 3.9981,-4.979 8.9794,-8.453 15.4458,-9.096 7.0715,-0.703 12.4146,1.475 18.5305,4.695 38.939397,-23.373 77.679097,-47.928 115.769097,-72.666 -4.877,-9.726 -7.3,-19.342 -3.586,-30.047 3.082,-8.881 10.16,-16.115 18.704,-19.92 2.89,-1.288 6.002,-2.155 9.032,-3.041 -0.16,-79.413 -1.172,-159.025 0.044,-238.422 -10.364,-2.895 -19.191,-7.425 -24.485,-17.354 -4.017,-7.658 -4.709,-16.631 -1.915,-24.815 2.799,-8.221 8.985,-15.353 16.868,-19.047 7.954,-3.727 17.134,-3.716 25.269,-0.544 6.177,2.408 10.472,6.276 15.128,10.793 64.183,-38.796 129.905,-75.549 192.999,-116.077 z"
     id="path11" />
  <path
     fill="#fffffe"
     d="m 974.82678,1284.89 c 6.073,6.67 12.412,11.59 21.792,11.85 6.62602,0.19 12.31802,-1.9301 18.27602,-4.57 31.089,23.44 63.079,46.07 93.659,70.1099 -6.06,9.1301 -6.32,20.9301 -0.67,30.31 1.81,3 4.16,5.6301 6.92,7.78 -2.95,0.91 -93.036,78.54 -104.509,88.13 0.849,2.04 1.701,4.1 2.385,6.2 2.365,7.28 2.026,15.92 -1.58,22.73 -3.395,6.42 -9.571,10.86 -16.43902,12.94 -8.13,2.41 -16.9,1.28 -24.153,-3.1199 -6.522,-3.87 -11.616,-9.9501 -13.257,-17.4601 -1.993,-9.13 1.344,-16.78 6.162,-24.3199 -12.654,-13.1701 -24.038,-27.87 -35.724,-41.9201 -16.6,-19.71 -32.969,-39.6099 -49.105,-59.7 2.877,-1.34 5.544,-3.09 7.916,-5.19 10.88,-9.66 14.056,-25.35 7.788,-38.47 27.258,-17.8 53.171,-37.7 80.539,-55.2999 z"
     id="path13" />
  <path
     fill="#40adaf"
     d="m 886.49978,1378.66 c 26.082,34.57 55.82,66.38 82.736,100.28 9.209,-3.6501 17.716,-6.29 27.392,-2.1301 2.579,1.11 5.08302,2.6701 7.48502,4.11 34.871,-29.12 69.461,-58.56 103.771,-88.33 1.81,3 4.16,5.6301 6.92,7.78 -2.95,0.91 -93.036,78.54 -104.509,88.13 0.849,2.04 1.701,4.1 2.385,6.2 2.365,7.28 2.026,15.92 -1.58,22.73 -3.395,6.42 -9.571,10.86 -16.43902,12.94 -8.13,2.41 -16.9,1.28 -24.153,-3.1199 -6.522,-3.87 -11.616,-9.9501 -13.257,-17.4601 -1.993,-9.13 1.344,-16.78 6.162,-24.3199 -12.654,-13.1701 -24.038,-27.87 -35.724,-41.9201 -16.6,-19.71 -32.969,-39.6099 -49.105,-59.7 2.877,-1.34 5.544,-3.09 7.916,-5.1899 z"
     id="path15" />
  <path
     fill="#fffffe"
     d="m 714.06578,646.55993 c 6.508,1.784 13.473,13.613 26.618,14.265 10.312,0.511 19.273,-5.936 26.714,-12.295 26.582,14.326 52.515,30.227 78.705,45.28 40.597,23.332 81.607,46.395 121.281,71.261 -1.734,9.099 -2.642,17.713 1.641,26.359 4.976,10.044 13.923,14.233 23.879,17.857 l 0.18,233.20297 c -8.881,2.42 -17.182,5.45 -23.043,13.05 -7.391,9.57 -6.547,20.6 -4.952,31.82 -18.266,9.94 -35.902,21.64 -53.822,32.24 l -139.792,83.1501 c -1.457,0.8299 -2.853,1.7599 -4.654,1.25 -8.073,-2.28 -12.285,-9.04 -24.884,-9.33 -10.561,-0.24 -17.999,4.39 -25.248,11.47 -26.34,-16.33 -53.421,-31.58 -80.069,-47.41 -39.276,-23.7701 -78.78,-47.1501 -118.506,-70.1501 1.87,-8.58 2.637,-16.47 -0.839,-24.82 -4.368,-10.49 -13.224,-15.7 -23.252,-19.74 -0.361,-78.46197 0.81,-156.96897 -0.339,-235.42097 8.452,-3.202 16.306,-7.218 21.521,-14.962 6.302,-9.356 5.395,-18.897 3.484,-29.365 z"
     id="path17" />
  <path
     fill="#40adaf"
     d="m 742.90078,748.84793 c 2.229,-0.333 4.315,-0.64 6.569,-0.355 3.589,0.453 7.201,2.155 9.288,5.205 5.635,8.234 2.038,20.772 0.341,29.698 27.328,17.353 55.466,33.479 83.365,49.893 4.449,-7.31 9.939,-21.249 18.159,-24.46 2.641,-1.032 5.308,-0.796 7.828,0.45 3.741,1.848 7.811,5.848 8.725,10.047 1.88,8.634 -6.536,21.427 -11.29,28.433 -20.287,29.901 -50.385,51.447 -85.944,58.141 l 0.436,1.895 c 10.462,47.271 5.114,89.205 -21.717,130.00497 -6.684,10.16 -31.013,46.8 -41.902,47.97 -5.456,0.59 -9.367,-2.8 -13.143,-6.2 -0.704,-1.72 -1.415,-3.56 -1.752,-5.39 -1.943,-10.56 16.136,-28.82 22.097,-36.77 -27.033,-17.99 -56.288,-32.66 -82.928,-51.23897 -5.04,8.559 -15.023,30.22897 -25.262,32.08897 -3.046,0.55 -5.675,0.01 -8.226,-1.77 -3.858,-2.69 -5.88,-6.28 -6.5,-10.9 -0.37,-2.77 -0.033,-4.84 1.085,-7.41997 5.153,-11.886 29.792,-47.611 38.825,-58.591 27.287,-33.174 60.306,-51.208 102.975,-55.432 -22.404,-40.902 -19.208,-57.543 -11.843,-101.632 1.028,-6.15 1.194,-12.376 2.11,-18.533 1.046,-7.027 2.99,-10.912 8.704,-15.134 z"
     id="path19" />
  <path
     fill="#fffffe"
     d="m 665.80478,951.34393 c 10.216,5.576 19.864,12.505 29.627,18.859 17.259,11.395 34.691,22.526 52.289,33.38697 -3.597,8.38 -8.385,18.71 -15.437,24.71 -15.768,-10.24 -31.75,-20.15 -47.935,-29.71997 -12.132,-7.323 -24.831,-14.277 -35.906,-23.147 4.531,-8.769 11.023,-16.586 17.362,-24.089 z"
     id="path21" />
  <path
     fill="#fffffe"
     d="m 695.57978,924.67993 c 8.35,3.764 16.312,9.739 24.066,14.682 12.702,8.128 25.48,16.139 38.331,24.03 -1.4,9.83 -2.912,19.302 -5.334,28.951 l -9.044,-5.881 c -22.027,-15.998 -46.849,-30.453 -70.078,-44.716 6.828,-6.405 14.231,-11.953 22.059,-17.066 z"
     id="path23" />
  <path
     fill="#fffffe"
     d="m 756.35878,796.04793 c 10.559,4.768 20.863,12.236 30.755,18.304 15.987,9.824 32.116,19.416 48.381,28.773 -3.043,3.485 -6.44,6.704 -9.7,9.988 l -7.961,6.069 c -17.835,-11.289 -50.72,-27.503 -65.151,-39.758 1.016,-7.851 2.107,-15.615 3.676,-23.376 z"
     id="path25" />
  <path
     fill="#fffffe"
     d="m 751.74878,833.94193 c 8.957,2.455 46.167,26.936 56.587,33.224 l -9.003,5.877 c -8.791,4.655 -19.586,9.7 -29.624,7.197 -7.294,-4.793 -15.797,-36.914 -17.96,-46.298 z"
     id="path27" />
  <path
     fill="#fffffe"
     d="m 747.30078,909.04293 c 0.787,-0.156 1.615,-0.341 2.415,-0.383 1.309,-0.067 3.207,-0.336 4.173,0.699 6.028,6.464 3.943,30.905 4.044,39.701 -7.079,-4.12 -13.918,-8.831 -20.824,-13.244 -9.203,-5.845 -18.335,-11.8 -27.395,-17.863 12.525,-4.247 24.479,-7.131 37.587,-8.91 z"
     id="path29" />
  <path
     fill="#fffffe"
     d="m 454.32578,199.58993 c 9.174,9.496 19.508,17.112 33.302,17.363 13.156,0.241 22.837,-6.441 31.726,-15.345 12.862,6.695 25.37,14.453 37.954,21.674 24.447,13.92 48.79,28.021 73.028,42.301 26.588,15.669 54.409,30.494 80.025,47.68 -1.544,9.234 -2.01,17.501 2.762,26.029 4.909,8.774 13.204,13.238 22.481,16.114 l 0.068,237.947 c -8.264,2.483 -15.71,6.058 -20.768,13.34 -6.258,9.011 -6.062,19.681 -4.449,30.05 -63.818,36.811 -127.098,74.548 -189.818,113.201 l -8.641,5.28 c -6.219,-5.276 -13.049,-9.617 -21.359,-10.478 -10.825,-1.121 -18.934,4.039 -27.094,10.328 -66.228,-39.692 -133.502,-77.576 -199.854,-117.053 1.622,-8.715 1.563,-17.028 -2.647,-25.072 -5.104,-9.753 -14.354,-14.156 -24.357,-17.296 l -0.406,-238.41 c 7.698,-2.644 14.564,-5.904 19.709,-12.466 6.713,-8.562 7.276,-18.944 5.95,-29.288 z"
     id="path31" />
  <path
     fill="#324d53"
     d="m 449.41478,266.43993 c 0.396,0.105 0.8,0.181 1.187,0.315 3.16,1.089 6.461,3.597 7.713,6.765 2.406,6.086 -2.154,13.895 -4.654,19.331 l 7.067,11.892 c 4.006,-2.466 9.237,-6.557 14.098,-5.621 6.687,8.154 69.876,132.375 72.452,142.259 -1.744,6.055 -8.724,8.854 -13.818,11.767 3.013,5.848 10.589,14.326 10.055,20.988 -2.79,5.926 -7.332,10.493 -13.094,13.648 -3.867,2.118 -8.627,3.529 -12.973,2.038 -6.329,-2.171 -8.301,-8.073 -11.078,-13.57 -2.592,-0.761 -5.174,-1.552 -7.747,-2.373 -18.629,-5.945 -22.984,-20.714 -31.206,-36.644 -12.816,-1.357 -20.596,-4.409 -30.14,-13.221 -1.892,0.738 -3.756,1.551 -5.585,2.434 -15.466,7.599 -27.846,20.814 -33.466,37.197 -6.199,18.071 -3.855,34.22 4.374,51.173 9.526,15.51 20.961,23.286 36.727,31.954 -8.439,12.31 -16.185,25.14 -24.117,37.782 -20.89,-14.068 -40.109,-29.441 -52.122,-52.034 -13.631,-25.543 -16.375,-55.508 -7.608,-83.102 13.303,-42.345 45.829,-61.728 82.926,-81.083 -4.566,-8.199 -20.569,-31.381 -18.211,-40.37 3.285,-3.834 8.226,-6.039 12.575,-8.502 -1.691,-3.824 -3.827,-7.344 -5.948,-10.938 -4.232,-1.96 -9.742,-3.764 -12.342,-7.853 -1.617,-2.544 -2.261,-5.546 -1.237,-8.473 3.466,-9.912 27.221,-20.457 36.172,-25.759 z"
     id="path33" />
  <path
     fill="#fffffe"
     d="m 460.01278,372.50793 c 12.987,-2.971 25.975,4.959 29.264,17.87 3.289,12.911 -4.32,26.089 -17.147,29.694 -8.581,2.412 -17.796,-0.017 -24.073,-6.347 -6.277,-6.329 -8.63,-15.564 -6.146,-24.125 2.483,-8.561 9.412,-15.103 18.102,-17.092 z"
     id="path35" />
  <path
     fill="#324d53"
     d="m 459.83178,383.40493 c 7.163,-3.067 15.459,0.229 18.563,7.376 3.105,7.148 -0.149,15.46 -7.28,18.601 -7.183,3.165 -15.57,-0.118 -18.697,-7.317 -3.127,-7.2 0.198,-15.57 7.414,-18.66 z"
     id="path37" />
  <path
     fill="#324d53"
     d="m 484.73478,518.90693 c 13.355,-0.597 115.738,-1.68 121.953,0.652 2.625,0.985 4.347,2.761 5.638,5.214 1.595,3.027 1.818,8.55 0.569,11.733 -5.536,14.114 -47.8,5.206 -61.258,7.96 -14.05,2.876 -30.006,13.005 -42.992,19.35 l 0.044,36.855 49.241,-0.153 c 8.692,-0.024 18.863,-1.095 27.353,0.613 2.573,0.518 4.125,1.495 5.942,3.359 4.64,4.758 4.576,13.737 4.641,19.946 0.047,4.447 -0.358,7.395 -3.682,10.608 -5.044,4.877 -11.775,3.897 -18.23,3.814 l -132.586,-0.017 c -23.224,0.042 -46.966,1.106 -70.14,-0.022 -2.586,-0.126 -5.401,-0.097 -7.569,-1.702 -4.254,-3.149 -5.438,-7.879 -5.846,-12.929 -0.517,-6.411 -0.52,-15.618 4.528,-20.344 6.231,-5.834 42.737,-3.268 52.295,-3.218 9.088,-14.543 26.346,-46.347 37.512,-56.983 5.879,-5.599 12.53,-4.542 20.014,-4.23 -0.011,-4.457 -0.4,-9.505 1.735,-13.557 2.268,-4.306 6.523,-5.553 10.838,-6.949 z"
     id="path39" />
  <path
     fill="#fffffe"
     d="m 466.73078,559.49193 c 7.258,-1.765 14.587,2.626 16.457,9.857 1.869,7.231 -2.414,14.623 -9.617,16.598 -4.754,1.303 -9.841,-0.055 -13.313,-3.554 -3.471,-3.499 -4.789,-8.597 -3.449,-13.34 1.341,-4.743 5.132,-8.397 9.922,-9.561 z"
     id="path41" />
  <path
     fill="#fffffe"
     d="m 513.29278,1098.4899 c 22.053,14.82 46.074,27.63 69.03,41.0601 43.16,25.2399 86.488,50.41 129.136,76.51 -2.08,9 -2.78,18.01 1.507,26.56 4.979,9.92 14.083,14.57 24.222,17.63 -0.85,27.43 -0.139,55.03 -0.14,82.48 l -0.147,150.9 c -25.477,16.2 -51.803,31.28 -77.655,46.89 -37.263,22.8 -74.651,45.4 -112.161,67.8 l -9.773,6.16 c -7.094,-6.89 -15.343,-12.2 -25.615,-11.82 -10.571,0.4 -18.021,6.16 -25.052,13.38 -23.753,-14.95 -48.133,-28.97 -72.155,-43.49 -36.508,-22.48 -73.252,-44.58 -110.227,-66.28 l 0.3,-0.91 c 3.047,-9.44 2.626,-18.87 -2.238,-27.69 -5.367,-9.73 -13.604,-14.13 -23.769,-17.28 l 0.039,-224.86 c 9.433,-1.57 18.745,-5.4 24.632,-13.27 7.104,-9.5 6.605,-20.16 5.06,-31.25 51.507,-30.19 102.697,-60.9101 153.56,-92.1801 6.867,6.5 14.355,11.3 24.086,11.77 11.078,0.52 19.659,-4.77 27.36,-12.11 z"
     id="path43" />
  <path
     fill="#40adaf"
     d="m 467.39278,1200.11 c 37.4,-4.29 80.877,13.24 110.375,35.13 32.775,24.32 58.294,64.82 64.128,105.42 5.551,38.63 -2.933,75.21 -26.605,106.39 -21.971,29.45 -54.923,48.76 -91.355,53.52 l -1.946,0.19 c -41.538,4.01 -80.635,-11.15 -112.432,-37.71 -32.791,-27.39 -57.171,-69.29 -60.934,-112.22 -3.358,-38.32 6.784,-75.49 31.976,-104.97 23.496,-27.49 50.486,-43.02 86.793,-45.75 z"
     id="path45" />
  <path
     fill="#b0dac0"
     d="m 459.23978,1219.06 c 27.211,-4.56 65.242,5.11 89.114,18.22 34.894,19.1 60.753,51.31 71.871,89.5 9.149,32.6 5.977,67.21 -10.733,96.79 -17.58,31.12 -43.361,48.36 -77.027,57.8 -2.531,0.59 -5.051,1.04 -7.626,1.39 -35.829,4.87 -70.096,-7.04 -98.486,-28.74 -31.208,-23.85 -54.016,-60.11 -59.227,-99.3 -4.481,-33.69 3.189,-66.4 24.155,-93.38 17.831,-22.96 38.706,-38.72 67.959,-42.28 z"
     id="path47" />
  <path
     fill="#40adaf"
     d="m 482.87378,1295.55 c 31.22,-6.71 61.974,13.15 68.687,44.37 6.713,31.22 -13.156,61.98 -44.378,68.69 -31.218,6.71 -61.964,-13.16 -68.676,-44.38 -6.713,-31.2101 13.15,-61.9601 44.367,-68.68 z"
     id="path49" />
  <path
     fill="#40adaf"
     d="m 443.22478,1251.29 c 8.132,-2.62 16.859,1.78 19.594,9.87 2.734,8.0999 -1.537,16.89 -9.59,19.74 -5.314,1.88 -11.231,0.75 -15.483,-2.95 -4.251,-3.7 -6.179,-9.4101 -5.044,-14.9301 1.134,-5.5199 5.155,-10.01 10.523,-11.7299 z"
     id="path51" />
  <path
     fill="#40adaf"
     d="m 529.07978,1430.37 c 8.08,-1.27 15.684,4.18 17.08,12.24 1.397,8.06 -3.931,15.75 -11.968,17.27 -5.313,1.01 -10.757,-0.92 -14.243,-5.06 -3.485,-4.13 -4.471,-9.83 -2.58,-14.89 1.892,-5.07 6.368,-8.72 11.711,-9.56 z"
     id="path53" />
  <path
     fill="#40adaf"
     d="m 406.78078,1307.46 c 1.132,0.02 1.779,0 2.962,0.16 4.009,0.55 7.573,2.42 9.889,5.81 2.189,3.21 2.776,7.15 1.797,10.89 -1.316,5.01 -4.13,7.41 -8.44,9.97 -4.7,-0.3 -8.624,-0.97 -11.999,-4.55 -2.334,-2.47 -3.278,-5.64 -2.969,-9 0.578,-6.29 4.106,-9.48 8.76,-13.28 z"
     id="path55" />
  <path
     fill="#40adaf"
     d="m 582.35778,1382.63 c 6.27,-0.8 11.998,3.64 12.775,9.92 0.778,6.27 -3.691,11.98 -9.967,12.73 -6.242,0.75 -11.914,-3.69 -12.687,-9.93 -0.774,-6.23 3.644,-11.92 9.879,-12.72 z"
     id="path57" />
  <path
     fill="#40adaf"
     d="m 561.84678,1280.42 c 5.35,-2.21 11.477,0.3499 13.666,5.7 2.19,5.36 -0.393,11.48 -5.76,13.65 -5.337,2.15 -11.412,-0.41 -13.589,-5.74 -2.177,-5.33 0.364,-11.41 5.683,-13.61 z"
     id="path59" />
  <path
     fill="#40adaf"
     d="m 460.45578,1435.64 c 1.142,-0.12 1.569,-0.18 2.807,-0.2 3.205,-0.03 5.534,0.3199 7.746,2.8199 2.229,2.52 3.194,5.51 2.72,8.85 -0.612,4.31 -2.089,7.02 -5.499,9.68 -3.802,-0.3299 -6.998,-0.75 -9.951,-3.3699 -2.394,-2.1301 -3.823,-4.87 -3.672,-8.1501 0.212,-4.6099 2.634,-6.7699 5.849,-9.6299 z"
     id="path61" />
  <path
     fill="#40adaf"
     d="m 412.77578,1384.32 c 4.857,-1.58 10.09,0.99 11.809,5.8 1.719,4.81 -0.699,10.12 -5.458,11.97 -3.201,1.25 -6.829,0.66 -9.471,-1.54 -2.641,-2.2 -3.878,-5.66 -3.23,-9.03 0.649,-3.38 3.081,-6.13 6.35,-7.2 z"
     id="path63" />
  <path
     fill="#40adaf"
     d="m 514.92178,1254.32 c 4.868,-1.19 9.798,1.71 11.123,6.55 1.325,4.83 -1.438,9.84 -6.232,11.3 -3.222,0.98 -6.722,0.13 -9.139,-2.22 -2.416,-2.34 -3.368,-5.81 -2.485,-9.06 0.883,-3.25 3.461,-5.77 6.733,-6.57 z"
     id="path65" />
  <path
     fill="#40adaf"
     d="m 582.38378,1331.48 c 2.994,-1.6301 6.645,-1.48 9.487,0.41 2.842,1.88 4.408,5.19 4.069,8.58 -0.339,3.39 -2.527,6.3199 -5.685,7.6099 -4.519,1.84 -9.689,-0.17 -11.78,-4.5799 -2.091,-4.4101 -0.376,-9.6901 3.909,-12.02 z"
     id="path67" />
  <path
     fill="#29829a"
     d="m 1063.0538,328.71393 c 4.95,-0.099 9.75,0.69 14,3.372 5.63,3.557 9.58,9.027 10.79,15.615 1.33,7.157 -0.43,12.837 -4.6,18.628 11.9,15.675 25.17,30.539 37.82,45.624 1.07,-0.753 2.15,-1.446 3.32,-2.035 5.14,-2.593 11.14,-2.866 16.49,-0.75 5.27,2.093 9.48,6.229 11.66,11.468 2.39,5.536 2.38,11.81 -0.01,17.344 -2.89,6.586 -7.17,9.152 -13.59,11.81 l -0.12,63.303 c 7.07,3.442 12.78,6.082 15.74,13.963 1.94,5.225 1.67,11.013 -0.74,16.036 -2.31,4.907 -6.5,8.676 -11.63,10.457 -7.32,2.534 -13.17,0.538 -19.89,-2.61 -13.42,15.573 -26.95,31.056 -40.58,46.447 3.09,5.09 4.68,10.287 4.23,16.314 -0.44,6.117 -3.51,11.745 -8.41,15.437 -5.01,3.775 -11.32,5.384 -17.53,4.468 -5.79,-0.848 -11,-3.911 -14.29,-8.792 -5.66,-8.391 -3.92,-17.583 -2.26,-26.843 -16.55,-14.175 -33.334,-28.044 -49.58402,-42.558 -1.03,0.377 -2.064,0.745 -3.102,1.102 -7.895,2.697 -11.404,1.693 -18.835,-1.958 -15.71,14.595 -32.142,28.362 -47.69,43.151 1.472,4.743 2.8,9.852 2.396,14.861 -0.608,7.546 -4.617,11.871 -10.125,16.597 -5.559,2.635 -10.916,3.927 -16.918,1.833 -5.004,-1.745 -8.758,-5.67 -11.033,-10.375 -4.154,-8.592 -2.78,-15.726 0.388,-24.195 -14.261,-12.365 -28.865,-24.327 -43.795,-35.873 -2.671,1.853 -5.324,3.699 -8.396,4.829 -5.177,1.905 -10.84,1.964 -15.827,-0.549 -4.783,-2.408 -8.198,-6.774 -9.788,-11.848 -1.736,-5.542 -1.23,-11.764 1.743,-16.803 3.618,-6.131 7.979,-8.036 14.655,-9.703 l -1.241,-60.477 c -5.326,-2.479 -10.207,-4.803 -13.203,-10.147 -2.825,-5.029 -3.321,-11.038 -1.358,-16.461 2.02,-5.728 6.27,-10.396 11.784,-12.943 6.662,-3.142 11.276,-2.234 17.971,0.16 15.984,-17.924 32.083,-37.499 46.273,-56.865 -0.678,-1.008 -1.331,-2.032 -1.958,-3.073 -3.405,-5.696 -5.288,-12.171 -3.451,-18.757 1.559,-5.589 5.782,-9.959 10.917,-12.487 6.764,-3.33 14.831,-3.436 21.806,-0.677 5.726,2.265 10.551,6.448 12.891,12.227 2.757,6.811 2.06,13.65 -0.813,20.225 14.848,10.04 30.248,19.331 45.438,28.845 7.907,-2.935 14.002,0.05 20.698,-2.006 8.31902,-2.554 44.63702,-30.779 54.20702,-37.61 0.31,-5.247 0.34,-11.715 2.34,-16.597 2.6,-6.373 7.11,-8.655 13.21,-11.124 z"
     id="path69" />
  <path
     fill="#fffffe"
     d="m 891.56178,496.42193 c 2.367,1.424 4.678,2.676 7.35,3.439 7.471,2.133 13.152,0.049 19.687,-3.597 15.192,11.251 31.499,21.355 47.217,31.88 -1.135,8.098 -1.162,13.892 1.439,21.856 -15.348,13.509 -31.096,26.758 -45.684,41.089 -2.648,-1.511 -5.277,-2.982 -8.219,-3.848 -7.781,-2.29 -13.376,0.232 -20.157,3.905 -14.332,-12.743 -29.525,-24.587 -44.428,-36.656 0.52,-7.185 -0.513,-12.508 -2.902,-19.208 15.625,-12.165 31.151,-25.419 45.697,-38.86 z"
     id="path71" />
  <path
     fill="#fffffe"
     d="m 994.97278,428.97093 c 11.99502,5.351 36.82102,24.563 49.45102,32.949 -1.57,7.181 -1.84,12.533 -0.37,19.78 -16.15,12.827 -32.368,25.563 -48.66202,38.205 -2.276,-1.2 -4.765,-2.386 -7.296,-2.943 -6.181,-1.36 -10.796,1.469 -15.856,4.626 -0.807,0.896 -1.402,0.788 -2.55,1.044 -11.373,-7.781 -23.114,-15.01 -34.487,-22.785 -15.703,-10.735 -8.579,-13.008 -11.745,-28.74 l -0.308,-1.492 c 15.803,-12.34 30.905,-26.144 46.067,-39.274 1.615,0.8 3.282,1.492 4.989,2.071 8.027,2.761 13.624,0.011 20.767,-3.441 z"
     id="path73" />
  <path
     fill="#fffffe"
     d="m 1049.1938,363.49593 c 1.34,0.62 0.83,0.257 1.91,1.252 2.04,1.882 3.99,3.553 6.36,5.025 7.35,4.561 12.63,3.213 20.56,1.378 12.75,15.499 25.62,30.894 38.62,46.183 -1.41,5.64 -2.53,11.206 -3.43,16.951 -11.62,8.049 -24.44,14.686 -36.76,21.618 -3.37,-2.562 -6.66,-4.149 -10.56,-5.759 -8,0.446 -11.74,1.655 -18.14,6.482 -16,-11.307 -32.109,-22.47 -48.31402,-33.486 2.17902,-8.55 1.25902,-14.559 -1.744,-22.606 16.58502,-12.97 34.33802,-24.82 51.49802,-37.038 z"
     id="path75" />
  <path
     fill="#fffffe"
     d="m 1047.3938,487.52293 c 3.72,1.513 7.47,4.134 11,6.129 l -0.1,92.165 c -3.82,1.983 -7.16,4.569 -10.61,7.117 -6.46,-5.8 -13.03,-11.483 -19.7,-17.047 l -30.04002,-25.493 c 1.361,-1.806 2.56002,-3.583 3.56002,-5.62 3.586,-7.306 1.853,-13.026 -0.66,-20.285 15.055,-12.805 31.07,-24.653 46.55,-36.966 z"
     id="path77" />
  <path
     fill="#fffffe"
     d="m 1073.0538,488.62293 c 7.64,2.522 38.1,28.921 46.67,35.79 -2.31,7.088 -2.37,13.09 -1.18,20.449 -7.85,8.625 -15.37,17.595 -23.02,26.392 l -18.22,21.018 c -3.98,-2.375 -8.17,-4.269 -12.35,-6.239 0.2,-30.497 -1.09,-61.76 0.8,-92.167 1.46,-2.787 4.61,-3.859 7.3,-5.243 z"
     id="path79" />
  <path
     fill="#fffffe"
     d="m 922.19078,372.83193 c 7.442,1.539 36.91,22.431 45.478,27.795 -3.372,8.576 -4.719,15.674 -2.809,24.776 l -23.787,20.328 c -7.48,6.224 -14.864,12.563 -22.148,19.015 l -9.311,-5.123 -0.042,-81.632 c 4.489,-1.305 8.446,-3.111 12.619,-5.159 z"
     id="path81" />
  <path
     fill="#fffffe"
     d="m 893.02678,374.30993 c 3.229,1.091 6.453,2.803 9.584,4.182 l 0.101,80.613 c -6.038,1.91 -9.169,4.611 -13.548,9.18 l -21.722,-9.018 c -5.878,-2.343 -11.77,-4.652 -17.673,-6.929 1.746,-8.19 0.312,-14.223 -2.518,-21.855 16.002,-17.869 31.08,-37.204 45.776,-56.173 z"
     id="path83" />
  <path
     fill="#fffffe"
     d="m 1116.0938,440.60193 c 1.2,0.336 0.77,0.061 1.67,0.936 4.7,4.562 8.32,7.09 14.79,8.609 -0.28,21.077 -0.36,42.157 -0.25,63.237 l -8.47,5.45 c -5.46,-4.366 -11.02,-8.618 -16.67,-12.754 -10.12,-7.926 -20.45,-15.673 -30.03,-24.243 3.1,-7.712 3.8,-12.021 2.7,-20.294 12.45,-6.346 24.31,-13.702 36.26,-20.941 z"
     id="path85" />
  <path
     fill="#fffffe"
     d="m 847.15578,458.58393 c 12.722,3.274 25.811,10.453 38.212,15.239 0.11,6.318 0.485,11.923 2.019,18.086 -9.485,7.086 -18.337,15.084 -27.322,22.788 -5.407,4.159 -10.163,9.9 -16.113,13.231 -2.954,1.653 -4.825,1.624 -8.022,0.802 -3.649,-4.446 -2.859,-53.476 -2.355,-61.422 2.676,-3.916 8.731,-4.843 12.668,-7.978 0.308,-0.244 0.609,-0.497 0.913,-0.746 z"
     id="path87" />
  <path
     fill="#fffffe"
     d="m 251.39878,814.01193 c -3.613,-8.351 -6.243,-16.572 -2.645,-25.539 2.273,-5.598 6.751,-10.014 12.38,-12.208 6.319,-2.507 13.567,-2.066 19.681,0.807 5.474,2.573 9.818,7.229 11.646,13.033 2.454,7.793 0.601,14.962 -2.123,22.38 29.204,30.457 60.376,59.458 90.591,88.941 6.839,-4.011 13.797,-6.645 21.816,-4.622 5.887,1.484 10.659,5.554 13.648,10.769 3.485,6.082 4.094,13.322 2.067,19.989 -1.802,5.927 -5.611,11.419 -11.176,14.348 -5.396,2.839 -12.058,2.892 -17.803,1.091 -3.031,-0.95 -5.904,-2.527 -8.621,-4.149 -24.75,22.079 -49.105,44.61 -74.434,66.03797 0.313,0.47 0.638,0.93 0.939,1.41 3.842,6.12 5.628,14.74 3.77,21.79 -1.838,6.98 -6.65,12.88 -12.861,16.47 -6.559,3.86 -14.449,4.75 -21.707,2.46 -7.151,-2.24 -13.406,-7.17 -16.663,-13.99 -4.516,-9.46 -2.721,-18.05 0.424,-27.45 -26.338,-18.30297 -51.904,-37.83897 -77.898,-56.63997 1.611,-2.874 4.033,-5.533 6.053,-8.144 1.136,-2.203 1.863,-4.239 2.266,-6.676 1.6,-9.665 -1.154,-17.544 -6.862,-25.246 -2.495,-1.639 -4.922,-3.996 -7.245,-5.904 24.827,-29.656 49.066,-60.056 74.757,-88.958 z"
     id="path89" />
  <path
     fill="#40adaf"
     d="m 251.39878,814.01193 c -3.613,-8.351 -6.243,-16.572 -2.645,-25.539 2.273,-5.598 6.751,-10.014 12.38,-12.208 6.319,-2.507 13.567,-2.066 19.681,0.807 5.474,2.573 9.818,7.229 11.646,13.033 2.454,7.793 0.601,14.962 -2.123,22.38 29.204,30.457 60.376,59.458 90.591,88.941 6.839,-4.011 13.797,-6.645 21.816,-4.622 5.887,1.484 10.659,5.554 13.648,10.769 3.485,6.082 4.094,13.322 2.067,19.989 -1.802,5.927 -5.611,11.419 -11.176,14.348 -5.396,2.839 -12.058,2.892 -17.803,1.091 -3.031,-0.95 -5.904,-2.527 -8.621,-4.149 -24.75,22.079 -49.105,44.61 -74.434,66.03797 -1.43,-0.97 -2.129,-1.89 -3.039,-3.32 -0.946,-1.48 -1.287,-1.88997 -2.721,-3.08997 25.25,-21.914 50.219,-44.145 74.901,-66.692 -4.002,-9.144 -3.751,-14.104 -0.328,-23.438 -31.188,-28.881 -60.848,-59.715 -91.076,-89.605 -1.154,0.651 -2.289,1.286 -3.488,1.849 -8.386,3.939 -15.147,2.813 -23.572,-0.304 -13.576,15.01 -26.313,31.106 -39.339,46.612 -11.378,13.543 -24.084,27.265 -33.877,41.972 -2.495,-1.639 -4.922,-3.996 -7.245,-5.904 24.827,-29.656 49.066,-60.056 74.757,-88.958 z"
     id="path91" />
  <path
     fill="url(#Gradient1)"
     d="m 182.42978,948.93993 c 1.611,-2.874 4.033,-5.533 6.053,-8.144 l 78.161,59.144 c 7.052,-4.79 14.333,-7.701 22.964,-5.854 3.885,0.834 7.537,2.604 11.058,4.394 1.434,1.2 1.775,1.60997 2.721,3.08997 0.91,1.43 1.609,2.35 3.039,3.32 0.313,0.47 0.638,0.93 0.939,1.41 3.842,6.12 5.628,14.74 3.77,21.79 -1.838,6.98 -6.65,12.88 -12.861,16.47 -6.559,3.86 -14.449,4.75 -21.707,2.46 -7.151,-2.24 -13.406,-7.17 -16.663,-13.99 -4.516,-9.46 -2.721,-18.05 0.424,-27.45 -26.338,-18.30297 -51.904,-37.83897 -77.898,-56.63997 z"
     id="path93"
     style="fill:url(#Gradient1)" />
  <path
     fill="#eb9d39"
     d="m 878.58378,1383.85 c -15.327,7.11 -33.552,1.35 -42.004,-13.28 -8.451,-14.63 -4.333,-33.3 9.492,-43.02 13.825,-9.72 32.783,-7.27 43.692,5.63 1.801,2.14 3.322,4.49 4.524,7.01 6.268,13.12 3.092,28.81 -7.788,38.47 -2.372,2.1 -5.039,3.85 -7.916,5.19 z"
     id="path161" />
  <path
     fill="#eb9d39"
     d="m 182.42978,948.93993 c -2.57,2.561 -5.747,4.983 -9.088,6.416 -7.741,3.32 -17.998,2.421 -25.671,-0.697 -6.652,-2.704 -11.81,-7.637 -14.564,-14.297 -3.043,-7.361 -2.694,-15.636 0.315,-22.944 3.184,-7.734 9.358,-14.271 17.234,-17.266 9.049,-3.44 17.59,-1.206 25.986,2.818 2.323,1.908 4.75,4.265 7.245,5.904 5.708,7.702 8.462,15.581 6.862,25.246 -0.403,2.437 -1.13,4.473 -2.266,6.676 -2.02,2.611 -4.442,5.27 -6.053,8.144 z"
     id="path173" />
  <path
     fill="#29829a"
     d="m 1114.0438,1356.16 c 11.42,-9.5 28.24,-8.57 38.55,2.14 10.3,10.7 10.59,27.54 0.66,38.6 -9.92,11.05 -26.7,12.57 -38.45,3.47 -2.76,-2.15 -5.11,-4.78 -6.92,-7.78 -5.65,-9.38 -5.39,-21.18 0.67,-30.31 1.52,-2.3 3.37,-4.36 5.49,-6.12 z"
     id="path187" />
  <path
     fill="#29829a"
     d="m 718.93078,1690.47 c -2.017,-7.32 -2.097,-16.6301 1.597,-23.47 3.603,-6.6701 10.607,-10.9701 17.844,-12.6901 7.67,-1.8299 15.35,-0.4 21.901,3.99 5.664,3.8 10.318,9.59 11.647,16.3901 1.368,7 -1.142,13.8599 -5.168,19.54 -4.618,6.52 -11.018,11.3699 -19.09,12.44 -9.097,1.2 -16.554,-2.17 -23.479,-7.78 -1.245,-3.15 -3.286,-5.7 -5.252,-8.42 z"
     id="path215" />
  <path
     fill="#eb9d39"
     d="m 653.17178,1761.71 c 7.115,11.5499 4.274,26.6099 -6.557,34.76 -10.831,8.16 -26.091,6.73 -35.219,-3.29 -9.128,-10.03 -9.123,-25.36 0.012,-35.3801 9.134,-10.02 24.395,-11.44 35.221,-3.27 2.609,1.9701 4.828,4.4001 6.543,7.1801 z"
     id="path217" />
  <path
     fill="#40adaf"
     d="m 718.93078,1690.47 c 1.966,2.72 4.007,5.27 5.252,8.42 -23.266,20.92 -49.404,40.3 -71.011,62.82 -1.715,-2.78 -3.934,-5.21 -6.543,-7.1801 24.778,-19.51 48.857,-42.8599 72.302,-64.0599 z"
     id="path277" />
  <text
     xml:space="preserve"
     style="font-size:120px;line-height:1.25;font-family:'IBM Plex Sans';-inkscape-font-specification:'IBM Plex Sans';letter-spacing:0px;word-spacing:0px;stroke-width:2"
     x="1990.8823"
     y="825.54395"
     id="text638"><tspan
       sodipodi:role="line"
       id="tspan636"
       style="font-style:normal;font-variant:normal;font-weight:normal;font-stretch:normal;font-family:Arial;-inkscape-font-specification:Arial;text-align:end;text-anchor:end;stroke-width:2"
       x="1990.8823"
       y="825.54395">Statistical and</tspan><tspan
       sodipodi:role="line"
       style="font-style:normal;font-variant:normal;font-weight:normal;font-stretch:normal;font-family:Arial;-inkscape-font-specification:Arial;text-align:end;text-anchor:end;stroke-width:2"
       x="1990.8823"
       y="976.05341"
       id="tspan640">AI Methods for</tspan><tspan
       sodipodi:role="line"
       style="font-style:normal;font-variant:normal;font-weight:normal;font-stretch:normal;font-family:Arial;-inkscape-font-specification:Arial;text-align:end;text-anchor:end;stroke-width:2"
       x="1990.8823"
       y="1126.5629"
       id="tspan642">Multi-Modal</tspan><tspan
       sodipodi:role="line"
       style="font-style:normal;font-variant:normal;font-weight:normal;font-stretch:normal;font-family:Arial;-inkscape-font-specification:Arial;text-align:end;text-anchor:end;stroke-width:2"
       x="1990.8823"
       y="1277.0724"
       id="tspan644">Modeling of</tspan><tspan
       sodipodi:role="line"
       style="font-style:normal;font-variant:normal;font-weight:normal;font-stretch:normal;font-family:Arial;-inkscape-font-specification:Arial;text-align:end;text-anchor:end;stroke-width:2"
       x="1990.8823"
       y="1427.5818"
       id="tspan646">Biological</tspan><tspan
       sodipodi:role="line"
       style="font-style:normal;font-variant:normal;font-weight:normal;font-stretch:normal;font-family:Arial;-inkscape-font-specification:Arial;text-align:end;text-anchor:end;stroke-width:2"
       x="1990.8823"
       y="1578.0913"
       id="tspan648">Systems</tspan></text>
  <text
     xml:space="preserve"
     transform="matrix(2,0,0,2,25.703783,-5.31007)"
     id="text700"
     style="font-size:60px;line-height:1.25;font-family:'IBM Plex Sans';-inkscape-font-specification:'IBM Plex Sans';letter-spacing:0px;word-spacing:0px;white-space:pre;shape-inside:url(#rect702)" />
</svg>
